<svg xmlns="http://www.w3.org/2000/svg" xmlns:xlink="http://www.w3.org/1999/xlink" width="1017.641" height="756.498" viewBox="0 0 1017.641 756.498">
  <defs>
    <linearGradient id="linear-gradient" x1="0.5" y1="1" x2="0.5" gradientUnits="objectBoundingBox">
      <stop offset="0" stop-color="gray" stop-opacity="0.251"/>
      <stop offset="0.54" stop-color="gray" stop-opacity="0.122"/>
      <stop offset="1" stop-color="gray" stop-opacity="0.102"/>
    </linearGradient>
    <linearGradient id="linear-gradient-2" x1="0.63" y1="0.974" x2="0.63" y2="-0.017" xlink:href="#linear-gradient"/>
    <linearGradient id="linear-gradient-3" x1="0.5" y1="1" x2="0.5" y2="0" xlink:href="#linear-gradient"/>
  </defs>
  <g id="undraw_electric_car_b-7-hl_1_" data-name="undraw_electric_car_b-7-hl (1)" transform="translate(0.002 0.022)">
    <path id="Path_4" data-name="Path 4" d="M260.308,172.749c-5.4,6.409-7.484,15.419-9.811,23.89-18.735,68.268-64.9,123.18-117.476,162.4-22.265,16.614-49.371,38.895-44.5,68.683,2.623,16,14.13,27.774,22.679,40.8,17.936,27.282,23.753,64.365,15.2,97.025-9.722,37.16-36.9,71.834-28.486,109.408,5.187,23.129,22.8,39.589,39.727,53.736q39.619,33.084,81.762,61.985c18.833,12.914,38.869,25.48,60.818,27.118,19.326,1.446,38.258-5.734,56.608-12.817,16.033-6.2,32.47-12.644,45.417-25.056,8.45-8.1,15.185-18.561,24.572-25.191,22.048-15.573,50.366-5.705,75.648.964a268.987,268.987,0,0,0,180.266-16.132c87.076-39.993,153.446-123.979,238.619-169.042,36.621-19.38,76.457-31.407,110.366-56.367a203.353,203.353,0,0,0,48.513-51.307c25.637-38.654,39.5-87.937,35.5-136.18S1069.3,231.939,1034.066,204.7c-37.716-29.152-85.351-34.6-128.263-52.1-44.292-18.1-83.714-49.187-127.582-68.567A266.427,266.427,0,0,0,553.1,88.965c-47.773,23.611-96.177,78.7-149.384,82.878C365.813,174.734,289.909,137.651,260.308,172.749Z" transform="translate(-87.95 -61.51)" fill="#6d8aff" opacity="0.1"/>
    <path id="Path_5" data-name="Path 5" d="M956.08,408.59s-14.56-49.45,2.73-85.84a78.1,78.1,0,0,0,6.32-49,131.349,131.349,0,0,0-6.94-23" transform="translate(-102.238 -70.11)" fill="none" stroke="#535461" stroke-miterlimit="10" stroke-width="2"/>
    <path id="Path_6" data-name="Path 6" d="M969,227.76c0,6.06-11,23.63-11,23.63s-11-17.57-11-23.63a11,11,0,1,1,21.94,0Z" transform="translate(-102.238 -67.383)" fill="#6d8aff"/>
    <path id="Path_7" data-name="Path 7" d="M987.09,261.32C983.8,266.41,965,275.2,965,275.2s.34-20.71,3.63-25.8a11,11,0,0,1,18.42,11.93Z" transform="translate(-102.238 -68.439)" fill="#6d8aff"/>
    <path id="Path_8" data-name="Path 8" d="M986.3,318.69c-5.41,2.73-26,.84-26,.84s10.75-17.71,16.16-20.44a11,11,0,0,1,9.88,19.59Z" transform="translate(-102.238 -70.352)" fill="#6d8aff"/>
    <path id="Path_9" data-name="Path 9" d="M975.93,362c-4.87,3.6-25.53,5.23-25.53,5.23s7.6-19.27,12.48-22.88a11,11,0,0,1,13,17.64Z" transform="translate(-102.238 -72.05)" fill="#6d8aff"/>
    <path id="Path_10" data-name="Path 10" d="M942,276.37c4.35,4.22,24.6,8.6,24.6,8.6s-5-20.11-9.31-24.34A11,11,0,1,0,942,276.37Z" transform="translate(-102.238 -68.869)" fill="#6d8aff"/>
    <path id="Path_11" data-name="Path 11" d="M930.51,327.13c5.41,2.73,26,.84,26,.84s-10.75-17.71-16.16-20.44a11,11,0,0,0-9.88,19.59Z" transform="translate(-102.238 -70.667)" fill="#6d8aff"/>
    <path id="Path_12" data-name="Path 12" d="M926.11,378c4.87,3.6,25.53,5.23,25.53,5.23s-7.6-19.27-12.48-22.88a11,11,0,1,0-13,17.64Z" transform="translate(-102.238 -72.623)" fill="#6d8aff"/>
    <path id="Path_13" data-name="Path 13" d="M969,227.76c0,6.06-11,23.63-11,23.63s-11-17.57-11-23.63a11,11,0,1,1,21.94,0Z" transform="translate(-102.238 -67.383)" fill="#6d8aff" opacity="0.1"/>
    <path id="Path_14" data-name="Path 14" d="M987.09,261.32C983.8,266.41,965,275.2,965,275.2s.34-20.71,3.63-25.8a11,11,0,0,1,18.42,11.93Z" transform="translate(-102.238 -68.439)" fill="#6d8aff" opacity="0.1"/>
    <path id="Path_15" data-name="Path 15" d="M986.3,318.69c-5.41,2.73-26,.84-26,.84s10.75-17.71,16.16-20.44a11,11,0,0,1,9.88,19.59Z" transform="translate(-102.238 -70.352)" fill="#6d8aff" opacity="0.1"/>
    <path id="Path_16" data-name="Path 16" d="M975.93,362c-4.87,3.6-25.53,5.23-25.53,5.23s7.6-19.27,12.48-22.88a11,11,0,0,1,13,17.64Z" transform="translate(-102.238 -72.05)" fill="#6d8aff" opacity="0.1"/>
    <path id="Path_17" data-name="Path 17" d="M942,276.37c4.35,4.22,24.6,8.6,24.6,8.6s-5-20.11-9.31-24.34A11,11,0,1,0,942,276.37Z" transform="translate(-102.238 -68.869)" fill="#6d8aff" opacity="0.1"/>
    <path id="Path_18" data-name="Path 18" d="M930.51,327.13c5.41,2.73,26,.84,26,.84s-10.75-17.71-16.16-20.44a11,11,0,0,0-9.88,19.59Z" transform="translate(-102.238 -70.667)" fill="#6d8aff" opacity="0.1"/>
    <path id="Path_19" data-name="Path 19" d="M926.11,378c4.87,3.6,25.53,5.23,25.53,5.23s-7.6-19.27-12.48-22.88a11,11,0,1,0-13,17.64Z" transform="translate(-102.238 -72.623)" fill="#6d8aff" opacity="0.1"/>
    <path id="Path_20" data-name="Path 20" d="M1017.08,487.59s-14.56-49.45,2.73-85.84a78.1,78.1,0,0,0,6.32-49,131.345,131.345,0,0,0-6.94-23" transform="translate(-102.238 -73.7)" fill="none" stroke="#535461" stroke-miterlimit="10" stroke-width="2"/>
    <path id="Path_21" data-name="Path 21" d="M1030,306.76c0,6.06-11,23.63-11,23.63s-11-17.57-11-23.63a11,11,0,1,1,21.94,0Z" transform="translate(-102.238 -70.386)" fill="#6d8aff"/>
    <path id="Path_22" data-name="Path 22" d="M1048.09,340.32c-3.29,5.09-22.05,13.87-22.05,13.87s.34-20.71,3.63-25.8a11,11,0,1,1,18.42,11.93Z" transform="translate(-102.238 -71.39)" fill="#6d8aff"/>
    <path id="Path_23" data-name="Path 23" d="M1047.3,397.69c-5.41,2.73-26,.84-26,.84s10.75-17.71,16.16-20.44a11,11,0,1,1,9.88,19.59Z" transform="translate(-102.238 -73.287)" fill="#6d8aff"/>
    <path id="Path_24" data-name="Path 24" d="M1036.93,441c-4.87,3.6-25.53,5.23-25.53,5.23s7.6-19.27,12.48-22.88a11,11,0,0,1,13,17.64Z" transform="translate(-102.238 -75.01)" fill="#6d8aff"/>
    <path id="Path_25" data-name="Path 25" d="M1003,355.37c4.35,4.22,24.6,8.6,24.6,8.6s-5-20.11-9.31-24.34A11,11,0,0,0,1003,355.37Z" transform="translate(-102.238 -71.869)" fill="#6d8aff"/>
    <path id="Path_26" data-name="Path 26" d="M991.51,406.13c5.41,2.73,26,.84,26,.84s-10.75-17.71-16.16-20.44a11,11,0,0,0-9.88,19.59Z" transform="translate(-102.238 -73.618)" fill="#6d8aff"/>
    <path id="Path_27" data-name="Path 27" d="M987.11,457c4.87,3.6,25.53,5.23,25.53,5.23s-7.6-19.27-12.48-22.88a11,11,0,1,0-13,17.64Z" transform="translate(-102.238 -75.588)" fill="#6d8aff"/>
    <path id="Path_28" data-name="Path 28" d="M1030,306.76c0,6.06-11,23.63-11,23.63s-11-17.57-11-23.63a11,11,0,1,1,21.94,0Z" transform="translate(-102.238 -70.386)" fill="#6d8aff" opacity="0.1"/>
    <path id="Path_29" data-name="Path 29" d="M1048.09,340.32c-3.29,5.09-22.05,13.87-22.05,13.87s.34-20.71,3.63-25.8a11,11,0,1,1,18.42,11.93Z" transform="translate(-102.238 -71.39)" fill="#6d8aff" opacity="0.1"/>
    <path id="Path_30" data-name="Path 30" d="M1047.3,397.69c-5.41,2.73-26,.84-26,.84s10.75-17.71,16.16-20.44a11,11,0,1,1,9.88,19.59Z" transform="translate(-102.238 -73.287)" fill="#6d8aff" opacity="0.1"/>
    <path id="Path_31" data-name="Path 31" d="M1036.93,441c-4.87,3.6-25.53,5.23-25.53,5.23s7.6-19.27,12.48-22.88a11,11,0,0,1,13,17.64Z" transform="translate(-102.238 -75.01)" fill="#6d8aff" opacity="0.1"/>
    <path id="Path_32" data-name="Path 32" d="M1003,355.37c4.35,4.22,24.6,8.6,24.6,8.6s-5-20.11-9.31-24.34A11,11,0,0,0,1003,355.37Z" transform="translate(-102.238 -71.869)" fill="#6d8aff" opacity="0.1"/>
    <path id="Path_33" data-name="Path 33" d="M991.51,406.13c5.41,2.73,26,.84,26,.84s-10.75-17.71-16.16-20.44a11,11,0,0,0-9.88,19.59Z" transform="translate(-102.238 -73.618)" fill="#6d8aff" opacity="0.1"/>
    <path id="Path_34" data-name="Path 34" d="M987.11,457c4.87,3.6,25.53,5.23,25.53,5.23s-7.6-19.27-12.48-22.88a11,11,0,1,0-13,17.64Z" transform="translate(-102.238 -75.588)" fill="#6d8aff" opacity="0.1"/>
    <path id="Path_140" data-name="Path 140" d="M487.25,0C756.29-.374,974.34,34.927,974.28,78.85s-218.21,79.835-487.25,80.212S-.061,124.138,0,80.215,218.21.38,487.25,0Z" transform="matrix(0.995, -0.097, 0.097, 0.995, 32.519, 459.709)" fill="#6d8aff" opacity="0.1"/>
    <path id="Path_35" data-name="Path 35" d="M1055.1,532.76c18.22-37.9,14.456-99.59,12.514-120.53-.424-4.58-.759-7.21-.759-7.21s-16.062-2.57-10.14-22.3c2.9-9.66-7.391-15-18.624-17.93a129.376,129.376,0,0,0-24.477-3.51l-155.583-9.75h0c-21.334-34.36-63.311-28.84-63.311-28.84s-37.445-3.95-63.991-4.36A71.447,71.447,0,0,0,717.568,309a43.059,43.059,0,0,0-8.928-4.13,25,25,0,0,0-22.349,4.25,12.013,12.013,0,0,0-3.636,4.29,11.874,11.874,0,0,0-.739,2.41,43.622,43.622,0,0,0-.985,4.29,7.432,7.432,0,0,1-.985,1.95c-1.064,1.53-2.9,2.68-3.134,4.53a3.042,3.042,0,0,0,0,.32,3.392,3.392,0,0,0-.384,1.14,4.16,4.16,0,0,0,.5,2.37,3.813,3.813,0,0,0,.2.34,28.371,28.371,0,0,0-3.183,6.2,10.174,10.174,0,0,0-1.055.67l-.3.22v.61l-.168.13-.365,9.85.207.16a29.233,29.233,0,0,0,13.362,22.76c.128.63.246,1.27.365,1.94a53.625,53.625,0,0,1,.729,9.78h-.167c-4.631-2-12.554.94-19.363,4.37H578.982c17.2-22.46,38.253-39.88,38.253-39.88V327.83c-15.037-.76-147.138,63.64-176.1,77.86l-1.281.63L291.012,411c-26.96-.17-50.531,3.85-70.948,10.4A201.579,201.579,0,0,0,131.221,479c-17.579,19.58-25.285,35.76-25.285,35.76l.168,1.36-.168.35.236.21,4.011,32.12,2.759,22.1c-19.176,12.58,5.666,17.62,5.666,17.62,23.649,20.58,61.7,19.73,61.7,19.73,9.292,12.87,36.341,11.15,36.341,11.15H358.63a353.518,353.518,0,0,1,8.868-39.2c6.06,44.29,40.5,78.22,82.063,78.22a75.631,75.631,0,0,0,9.223-.57,75.619,75.619,0,0,0,9.223.57c42.047,0,76.791-34.73,82.26-79.76h6.947a159.126,159.126,0,0,1-6.73,29.59C678.1,570.51,915.592,552.5,915.592,552.5q1.478-14.25,3.242-27.49c9.785,24.65,31.966,41.86,57.783,41.86a57.48,57.48,0,0,0,7.016-.44,57.467,57.467,0,0,0,7.016.44c30.656,0,56.167-24.27,61.922-56.45a149.27,149.27,0,0,1,1.3,17.13c-1.094,5.46-2.05,8.95-2.178,9.44q1.153-2.14,2.188-4.38v1.78c-.237,1-.4,1.56-.453,1.75l.433-.82v1.31A39.429,39.429,0,0,1,1055.1,532.76Z" transform="translate(-87.95 -77.557)" fill="url(#linear-gradient)"/>
    <rect id="Rectangle_3" data-name="Rectangle 3" width="296.9" height="119.77" transform="translate(654.932 320.715)" fill="#6f7d95"/>
    <path id="Path_36" data-name="Path 36" d="M593.73,278.98l42.17,94.47,83.51-5.06,3.37-38.8,2.53-45.55L607.23,275.6Z" transform="translate(-9.424 -11.431)" fill="#4b5c7a"/>
    <path id="Path_37" data-name="Path 37" d="M681.68,340.49s16-15.18,35.43-18.56,84.35,3.37,84.35,3.37l9.28,16L809,348.92Z" transform="translate(-97.347 -71.278)" fill="#ff4d52"/>
    <rect id="Rectangle_4" data-name="Rectangle 4" width="299.43" height="87.72" transform="translate(444.446 314.095)" fill="#4b5c7a"/>
    <path id="Path_38" data-name="Path 38" d="M767,448.67c7.91-26.45-7.86-43.83-7.86-43.83L733,386.6a1.22,1.22,0,0,1-.08.18A34,34,0,0,1,725.81,373c-.08-.32-.15-.65-.23-1a28.14,28.14,0,0,0,6.2-6.35c4.26-2.61,6.16-6.81,6.88-11a54.858,54.858,0,0,0,6.49-13.13,23.334,23.334,0,0,0,.66-2.29,12,12,0,0,0,.66-4.49,12.279,12.279,0,0,0-1.66-4.8c-4.4-8-12.32-13.57-20.35-18.11a43.3,43.3,0,0,0-8.91-4.06,25.25,25.25,0,0,0-22.3,4.18,11.86,11.86,0,0,0-3.63,4.22,11.564,11.564,0,0,0-.74,2.37,42.377,42.377,0,0,0-.95,4.22,7.27,7.27,0,0,1-.94,1.91c-1.07,1.5-2.89,2.63-3.13,4.46a2.946,2.946,0,0,0,0,.32,3.3,3.3,0,0,0-.38,1.12,4,4,0,0,0,.5,2.33,3.788,3.788,0,0,0,.2.34,27.758,27.758,0,0,0-3.18,6.1,10.174,10.174,0,0,0-1.06.66l-.29.21v.6l-.17.13-.37,9.69.2.16a28.67,28.67,0,0,0,13.33,22.39c.13.62.25,1.25.36,1.91a51.337,51.337,0,0,1,.72,10.57,3.592,3.592,0,0,1,0-.92c-7.23-3.27-23,5.77-29.35,9.77h0a12.047,12.047,0,0,0-2.67,1.73l-.11.08h0c-4.37,3.54-13,13.38-19.85,38.67-9.5,35.29-8.51,43.29-15.43,51.47s-13.79,65.81-13.79,65.81l13.93,3.75,1.78-5.72c16.56,15.1,62.93,22.37,62.93,22.37l1.42-4.41c7.11,2.56,19-1.33,19-1.33,17.38-6.14,23.89-21.72,36.5-42.27S767,448.67,767,448.67ZM696.9,555,729,455.43c2.91,15.46-9.93,39.81-11.07,55.73C717.22,521.4,705.3,541.75,696.9,555Z" transform="translate(-96.515 -74.976)" fill="url(#linear-gradient-2)"/>
    <path id="Path_39" data-name="Path 39" d="M737.06,343.9s5.59,21.29-11,25-5.66-9.57-5.66-9.57l16-15.59Z" transform="translate(-96.841 -72.105)" fill="#472727"/>
    <path id="Path_40" data-name="Path 40" d="M667.7,394.64s-12.34,5-21.41,38.68-8.17,41.28-14.7,49.11-13.22,62.77-13.22,62.77l13.06,3.52L642.8,512l31.27-97Z" transform="translate(-95.714 -76.559)" fill="#dde0e4"/>
    <path id="Path_41" data-name="Path 41" d="M667.7,394.64s-12.34,5-21.41,38.68-8.17,41.28-14.7,49.11-13.22,62.77-13.22,62.77l13.06,3.52L642.8,512l31.27-97Z" transform="translate(-95.714 -76.559)" opacity="0.05"/>
    <path id="Path_42" data-name="Path 42" d="M736.22,390.84s-51.66,26.26-44.1,9.13c3.74-8.46,3.6-17.23,2.51-24a51.257,51.257,0,0,0-3.25-11.62s35.12-27.78,33.06-5.1a43.4,43.4,0,0,0,1,14.58C728.48,385.86,736.22,390.84,736.22,390.84Z" transform="translate(-96.686 -72.793)" fill="#db8b8b"/>
    <path id="Path_43" data-name="Path 43" d="M725.44,373.87a27,27,0,0,1-24,5,27.309,27.309,0,0,1-6.85-2.89,51.257,51.257,0,0,0-3.25-11.62s35.12-27.78,33.06-5.1a43.4,43.4,0,0,0,1.04,14.61Z" transform="translate(-96.591 -72.406)" opacity="0.1"/>
    <circle id="Ellipse_2" data-name="Ellipse 2" cx="27.04" cy="27.04" r="27.04" transform="translate(579.094 298.805) rotate(-74.93)" fill="#db8b8b"/>
    <path id="Path_44" data-name="Path 44" d="M695.3,338.23a6.45,6.45,0,0,1-9-2.37,3.88,3.88,0,0,1-.46-2.22c.23-1.74,1.95-2.82,3-4.26,1.63-2.33,1.32-5.52,2.5-8.11a11.4,11.4,0,0,1,3.42-4,23.51,23.51,0,0,1,20.95-4.08,39.936,39.936,0,0,1,8.34,3.83c7.52,4.29,14.93,9.54,19,17.17a11.72,11.72,0,0,1,1.54,4.57,13,13,0,0,1-.9,5.1,53.159,53.159,0,0,1-6.23,12.67,9.761,9.761,0,0,0-3.24-2.61,3.34,3.34,0,0,0-3.84.71c-.87,1.11-1.4,3.23-2.72,2.73-.86-.32-.85-1.51-.81-2.43.18-4-2-7.77-4.93-10.47s-6.56-4.48-10.14-6.23c-2.57-1.26-6-4.15-8.82-4.66C699.46,332.92,697.81,336.68,695.3,338.23Z" transform="translate(-96.729 -71.171)" opacity="0.1"/>
    <path id="Path_45" data-name="Path 45" d="M695.67,336.86a6.45,6.45,0,0,1-9-2.37,3.88,3.88,0,0,1-.46-2.22c.23-1.74,1.95-2.82,3-4.26,1.63-2.33,1.32-5.52,2.5-8.11a11.4,11.4,0,0,1,3.42-4,23.51,23.51,0,0,1,20.95-4.08,39.939,39.939,0,0,1,8.34,3.83c7.52,4.29,14.93,9.54,19,17.17a11.721,11.721,0,0,1,1.54,4.57,13,13,0,0,1-.9,5.1,53.161,53.161,0,0,1-6.23,12.67,9.759,9.759,0,0,0-3.24-2.61,3.34,3.34,0,0,0-3.84.71c-.87,1.11-1.4,3.23-2.72,2.73-.86-.32-.85-1.51-.81-2.43.18-4-2-7.77-4.93-10.47s-6.56-4.48-10.14-6.23c-2.57-1.26-6-4.15-8.82-4.66C699.83,331.54,698.18,335.31,695.67,336.86Z" transform="translate(-96.735 -71.118)" fill="#472727"/>
    <path id="Path_46" data-name="Path 46" d="M709.83,394.42s21.39-4.19,22.32-7.62l24.46,17.27s14.72,16.49,7.19,41.73c0,0-6.13,52.89-18.05,72.52s-18.77,45.06-35.1,51c0,0-15.7-10.12-20.88-10,0,0,26.59-38.53,27.73-53.7s13.29-38.43,10.63-53.15l-36,111.9s-58-9-63.88-28.25c0,0,5-7.51,4.07-15.12s21.88-64.86,21.88-64.86l10.92-59.7s21.6-15.09,30.2-11.17C695.28,385.21,693.72,392.66,709.83,394.42Z" transform="translate(-96.584 -76.85)" fill="#dde0e4"/>
    <g id="Group_2" data-name="Group 2" transform="translate(585.049 269.666)" opacity="0.1">
      <path id="Path_47" data-name="Path 47" d="M717.62,348h0c-5.28-7.2-15.35-1.29-17-.26l-2.59-.26c-2.26-2.46-9.19-9-15.7-4.19l-.28.21-.39,9.23.28.22a19.279,19.279,0,0,0,6.29,3.22,9.49,9.49,0,0,0,4.44.22,7.66,7.66,0,0,0,5.11-4l1.35.09,1-.19a7.61,7.61,0,0,0,3.6,5.14c4.47,2.53,11,0,11.27-.05l.34-.13,2.4-8.93Zm-3.39,8.12c-1.33.45-6.35,1.93-9.72,0a6.46,6.46,0,0,1-3-4.86l-.12-.73-2.19.45-2.2-.08-.21.42A6.49,6.49,0,0,1,692.4,355c-3.77.81-8.13-2.11-9.27-2.94l.33-7.8c5.66-3.81,11.9,2.37,13.7,4.39l.19.21,3.65.36.22-.15c.1-.06,9.17-6.15,14.34-1.25a6.69,6.69,0,0,1,.71.77Z" transform="translate(-681.66 -341.569)"/>
      <path id="Path_48" data-name="Path 48" d="M734,352.64l-17-1.41-1.4-.27.63-2.36a6.693,6.693,0,0,0-.71-.77l2.06.2,13.91,1.36Z" transform="translate(-681.66 -341.569)"/>
    </g>
    <path id="Path_49" data-name="Path 49" d="M717.8,347.36h0c-5.28-7.2-15.35-1.29-17-.26l-2.59-.26c-2.26-2.46-9.19-9-15.7-4.19l-.28.21-.39,9.23.28.22a19.28,19.28,0,0,0,6.29,3.22,9.49,9.49,0,0,0,4.44.22,7.66,7.66,0,0,0,5.11-4l1.35.09,1-.19a7.61,7.61,0,0,0,3.6,5.14c4.47,2.53,11,0,11.27-.05l.34-.13,2.4-8.93Zm-3.39,8.12c-1.33.45-6.35,1.93-9.72,0a6.46,6.46,0,0,1-3-4.86l-.12-.73-2.19.45-2.17-.14-.21.42a6.49,6.49,0,0,1-4.37,3.72c-3.77.81-8.13-2.11-9.27-2.94l.33-7.8c5.66-3.81,11.9,2.37,13.7,4.39l.19.21,3.65.36.22-.15c.1-.06,9.17-6.15,14.34-1.25a6.69,6.69,0,0,1,.71.77Z" transform="translate(-96.472 -71.879)" fill="#472727"/>
    <path id="Path_50" data-name="Path 50" d="M734.16,352l-16.94-1.41-1.4-.27.63-2.36a6.692,6.692,0,0,0-.71-.77l2.06.2,13.91,1.36Z" transform="translate(-96.802 -71.946)" fill="#472727"/>
    <rect id="Rectangle_5" data-name="Rectangle 5" width="296.9" height="119.77" transform="translate(228.607 378.843)" fill="#6f7d95"/>
    <ellipse id="Ellipse_3" data-name="Ellipse 3" cx="82.85" cy="90.67" rx="82.85" ry="90.67" transform="translate(281.449 393.187)" fill="#4b5c7a"/>
    <ellipse id="Ellipse_4" data-name="Ellipse 4" cx="82.85" cy="90.67" rx="82.85" ry="90.67" transform="translate(281.449 393.187)" opacity="0.05"/>
    <ellipse id="Ellipse_5" data-name="Ellipse 5" cx="82.85" cy="90.67" rx="82.85" ry="90.67" transform="translate(299.555 393.187)" fill="#4b5c7a"/>
    <circle id="Ellipse_6" data-name="Ellipse 6" cx="36.82" cy="36.82" r="36.82" transform="translate(343.569 448.271)" opacity="0.05"/>
    <circle id="Ellipse_7" data-name="Ellipse 7" cx="11.05" cy="11.05" r="11.05" transform="translate(369.24 474.342)" fill="none" stroke="#6f7d95" stroke-miterlimit="10" stroke-width="2"/>
    <circle id="Ellipse_8" data-name="Ellipse 8" cx="2.76" cy="2.76" r="2.76" transform="translate(377.5 464.097)" fill="#6f7d95"/>
    <circle id="Ellipse_9" data-name="Ellipse 9" cx="2.76" cy="2.76" r="2.76" transform="matrix(0.766, -0.643, 0.643, 0.766, 391.267, 471.638)" fill="#6f7d95"/>
    <circle id="Ellipse_10" data-name="Ellipse 10" cx="2.76" cy="2.76" r="2.76" transform="translate(397.526 488.678) rotate(-80)" fill="#6f7d95"/>
    <circle id="Ellipse_11" data-name="Ellipse 11" cx="2.76" cy="2.76" r="2.76" transform="translate(389.175 498.877) rotate(-30)" fill="#6f7d95"/>
    <circle id="Ellipse_12" data-name="Ellipse 12" cx="2.76" cy="2.76" r="2.76" transform="matrix(0.342, -0.94, 0.94, 0.342, 373.877, 504.371)" fill="#6f7d95"/>
    <circle id="Ellipse_13" data-name="Ellipse 13" cx="2.76" cy="2.76" r="2.76" transform="matrix(0.94, -0.342, 0.342, 0.94, 361.67, 491.269)" fill="#6f7d95"/>
    <circle id="Ellipse_14" data-name="Ellipse 14" cx="2.76" cy="2.76" r="2.76" transform="translate(361.286 478.484) rotate(-60)" fill="#6f7d95"/>
    <path id="Path_51" data-name="Path 51" d="M1070.69,494.78c-2.83,19.54-10.7,40.93-10.7,40.93q.08-2,.1-3.95v-5c-1-53.86-30.35-87.09-49.28-103A106.386,106.386,0,0,0,995,412.6h51.45s20.24,41.33,24.46,61.57C1072.13,479.85,1071.79,487.18,1070.69,494.78Z" transform="translate(-102.238 -76.628)" fill="#ff4d52"/>
    <path id="Path_52" data-name="Path 52" d="M1070.69,494.78c-2.83,19.54-10.7,40.93-10.7,40.93q.08-2,.1-3.95v-5c-1-53.86-30.35-87.09-49.28-103A106.386,106.386,0,0,0,995,412.6h51.45s20.24,41.33,24.46,61.57C1072.13,479.85,1071.79,487.18,1070.69,494.78Z" transform="translate(-102.238 -76.628)" opacity="0.05"/>
    <ellipse id="Ellipse_15" data-name="Ellipse 15" cx="63.01" cy="68.96" rx="63.01" ry="68.96" transform="translate(817.722 349.937)" fill="#4b5c7a"/>
    <ellipse id="Ellipse_16" data-name="Ellipse 16" cx="63.01" cy="68.96" rx="63.01" ry="68.96" transform="translate(817.722 349.937)" opacity="0.05"/>
    <ellipse id="Ellipse_17" data-name="Ellipse 17" cx="63.01" cy="68.96" rx="63.01" ry="68.96" transform="translate(831.722 349.937)" fill="#4b5c7a"/>
    <circle id="Ellipse_18" data-name="Ellipse 18" cx="28" cy="28" r="28" transform="translate(865.332 391.444)" opacity="0.05"/>
    <circle id="Ellipse_19" data-name="Ellipse 19" cx="8.4" cy="8.4" r="8.4" transform="translate(884.932 411.129)" fill="none" stroke="#6f7d95" stroke-miterlimit="10" stroke-width="2"/>
    <circle id="Ellipse_20" data-name="Ellipse 20" cx="2.1" cy="2.1" r="2.1" transform="translate(891.232 403.292)" fill="#6f7d95"/>
    <circle id="Ellipse_21" data-name="Ellipse 21" cx="2.1" cy="2.1" r="2.1" transform="matrix(0.766, -0.643, 0.643, 0.766, 901.864, 409.03)" fill="#6f7d95"/>
    <circle id="Ellipse_22" data-name="Ellipse 22" cx="2.1" cy="2.1" r="2.1" transform="translate(906.681 421.997) rotate(-80)" fill="#6f7d95"/>
    <circle id="Ellipse_23" data-name="Ellipse 23" cx="2.1" cy="2.1" r="2.1" transform="translate(900.256 429.755) rotate(-30)" fill="#6f7d95"/>
    <circle id="Ellipse_24" data-name="Ellipse 24" cx="2.1" cy="2.1" r="2.1" transform="matrix(0.342, -0.94, 0.94, 0.342, 888.448, 433.932)" fill="#6f7d95"/>
    <circle id="Ellipse_25" data-name="Ellipse 25" cx="2.1" cy="2.1" r="2.1" transform="matrix(0.94, -0.342, 0.342, 0.94, 879.028, 423.955)" fill="#6f7d95"/>
    <circle id="Ellipse_26" data-name="Ellipse 26" cx="2.1" cy="2.1" r="2.1" transform="translate(878.747 414.233) rotate(-60)" fill="#6f7d95"/>
    <path id="Path_53" data-name="Path 53" d="M121.62,574.13,114,514.24h90.25l46.39,41.33-22.77,53.14S136,593.53,121.62,574.13Z" transform="translate(-87.95 -80.195)" fill="#ff4d52"/>
    <path id="Path_54" data-name="Path 54" d="M250.67,555.57,227.9,608.71S136,593.53,121.62,574.13l-.33-2.61-7-55.38-.07-.55-.17-1.34H204.3Z" transform="translate(-87.95 -80.196)" opacity="0.05"/>
    <path id="Path_55" data-name="Path 55" d="M624.33,330.37v19.4s-46.64,38-57.74,73.85a45.179,45.179,0,0,0-2.15,18.09C568.66,481.35,443,409.65,443,409.65l5.59-2.72C477.48,393,609.32,329.61,624.33,330.37Z" transform="translate(-93.915 -73.09)" fill="#7597ce"/>
    <path id="Path_56" data-name="Path 56" d="M730.61,424s43.68-21.46,50.69-37.34c.94-2.13,1.83-4.28,2.87-6.37,4.33-8.71,13.43-29.14,8.85-38.95-5.9-12.65,14.34,1.69,14.34,1.69L795.55,402.9l-28.68,16L729.76,424" transform="translate(-97.561 -72.737)" fill="#ff4d52"/>
    <path id="Path_57" data-name="Path 57" d="M730.61,424s43.68-21.46,50.69-37.34c.94-2.13,1.83-4.28,2.87-6.37,4.33-8.71,13.43-29.14,8.85-38.95-5.9-12.65,14.34,1.69,14.34,1.69L795.55,402.9l-28.68,16L729.76,424" transform="translate(-97.561 -72.737)" opacity="0.05"/>
    <path id="Path_58" data-name="Path 58" d="M250.67,555.57,227.9,608.71S136,593.53,121.62,574.13l-.33-2.61c.37-.25.76-.51,1.17-.76,0,0,27.83,21.93,91.1,27,0,0,38-30.37-23.62-64.1,0,0-53.6,1.68-75.68-17.51l-.24-.2.17-.35q.22-.43.71-1.34h89.37Z" transform="translate(-87.95 -80.196)" opacity="0.05"/>
    <path id="Path_59" data-name="Path 59" d="M564.44,441.7C568.66,481.35,443,409.65,443,409.65l5.59-2.72c3.7,3.94,18.47,17.23,48,15.79,19-.93,47.85-.08,70.05.89a45.18,45.18,0,0,0-2.2,18.09Z" transform="translate(-93.536 -74.845)" opacity="0.05"/>
    <path id="Path_60" data-name="Path 60" d="M618,457.31V577.08H562.84c3.64-27.86,1.54-68.47-33.84-91.75a85.58,85.58,0,0,0-89.3-2.66c-23.19,13.24-49.12,40.16-65.6,94.41h-53V457.31Z" transform="translate(-92.483 -78.467)" opacity="0.05"/>
    <path id="Path_61" data-name="Path 61" d="M1070.69,494.78c-2.08,13.22-5.42,26.06-10.59,37q-1,2.21-2.18,4.31c.13-.49,1.08-3.91,2.18-9.29,5.36-26.2,14.53-98.7-46.91-102.84-.8-.05-1.59-.1-2.38-.13A106.388,106.388,0,0,0,995,412.6h51.45s20.24,41.33,24.46,61.57C1072.13,479.85,1071.79,487.18,1070.69,494.78Z" transform="translate(-102.238 -76.636)" opacity="0.05"/>
    <path id="Path_62" data-name="Path 62" d="M1045.539,535.27c.788-2.89,28.865-107.13-44.065-112.12-73.955-5.06-83.1,51.45-91.4,128.21,0,0-233.479,17.71-358.967,54.83,0,0,30.126-83.8-26.6-121.7a83.245,83.245,0,0,0-87.973-2.66c-27.978,16.22-60.025,53-74.043,135.32H222.875s-26.6,1.69-35.731-11c0,0-37.435.84-60.655-19.4,0,0-24.924-5.06-4.985-17.71,0,0,28.254,21.93,90.574,27,0,0,37.435-30.37-23.269-64.1,0,0-53.2,1.69-74.782-17.71,0,0,7.576-15.91,24.865-35.16A198.192,198.192,0,0,1,226.2,422.4,223.016,223.016,0,0,1,296,412.18l146.658-4.64s14.166,18.56,48.193,16.87S591.4,426.94,591.4,426.94h.66l136.856-6.29a85.946,85.946,0,0,0,11.635-2.5c19.841-5.47,57.473-22.06,50.686-68.39l215.215,13.5a127.178,127.178,0,0,1,24.067,3.45c11.053,2.88,21.161,8.14,18.314,17.64-5.812,19.4,9.97,21.93,9.97,21.93s.335,2.59.749,7.09C1061.518,434.59,1065.39,498.39,1045.539,535.27Z" transform="translate(-87.95 -77.384)" fill="#ff4d52"/>
    <path id="Path_63" data-name="Path 63" d="M391.53,442.55s-91.1.84-151,54h33.74s94.47-24.46,117.24-43.86Z" transform="translate(-87.95 -76.366)" opacity="0.05"/>
    <path id="Path_64" data-name="Path 64" d="M390.68,441.7s-91.1.84-151,54h33.74s94.47-24.46,117.24-43.86Z" transform="translate(-87.95 -76.333)" fill="#ffec9f"/>
    <path id="Path_65" data-name="Path 65" d="M228.74,423.25v22.67L152,481.35l-11.88-1.43a201.5,201.5,0,0,1,88.62-56.67Z" transform="translate(-87.95 -75.693)" opacity="0.05"/>
    <path id="Path_66" data-name="Path 66" d="M227.89,422.41v22.67L151.14,480.5l-11.88-1.43a201.5,201.5,0,0,1,88.63-56.66Z" transform="translate(-87.95 -75.66)" fill="#ffec9f"/>
    <path id="Path_67" data-name="Path 67" d="M336.7,525.21s-41.33,25.3-45.55,81h23.62s9.28-60.73,36.27-81Z" transform="translate(-90.937 -80.282)" fill="none"/>
    <path id="Path_68" data-name="Path 68" d="M336.7,525.21s-41.33,25.3-45.55,81h23.62s9.28-60.73,36.27-81Z" transform="translate(-90.937 -80.282)" opacity="0.05"/>
    <path id="Path_69" data-name="Path 69" d="M825.08,526.9,610.83,552.2S596.66,462,599.28,426.91l138.92-6.29a88.382,88.382,0,0,0,11.8-2.47v8.37l104.59-25.3S872.31,427.36,825.08,526.9Z" transform="translate(-97.397 -76.781)" fill="none"/>
    <path id="Path_70" data-name="Path 70" d="M825.08,526.9,610.83,552.2S596.66,462,599.28,426.91l138.92-6.29a88.382,88.382,0,0,0,11.8-2.47v8.37l104.59-25.3S872.31,427.36,825.08,526.9Z" transform="translate(-97.397 -76.781)" opacity="0.05"/>
    <path id="Path_71" data-name="Path 71" d="M801.46,325.3s45.55-5.9,65.79,32.9l-65.14-2.51Z" transform="translate(-98.504 -71.499)" fill="#ff4d52"/>
    <path id="Path_72" data-name="Path 72" d="M864.09,371.8c-1.79,5.61-.44,11.78,9.93,16.05,8.63,3.56,18.75-.56,21.7-9.41,1.72-5.16.54-11-8.76-15.75S867.22,362,864.09,371.8Z" transform="translate(-99.043 -72.781)" fill="none"/>
    <path id="Path_73" data-name="Path 73" d="M864.09,371.8c-1.79,5.61-.44,11.78,9.93,16.05,8.63,3.56,18.75-.56,21.7-9.41,1.72-5.16.54-11-8.76-15.75S867.22,362,864.09,371.8Z" transform="translate(-99.043 -72.781)" opacity="0.05"/>
    <path id="Path_74" data-name="Path 74" d="M115.63,526.88s54.06,28,92.86,17.4" transform="translate(-87.95 -78.843)" fill="none" stroke="#ff4d52" stroke-miterlimit="10" stroke-width="1"/>
    <path id="Path_75" data-name="Path 75" d="M117.54,542s34.93,26.94,105.53,20.68" transform="translate(-87.95 -79.449)" fill="none" stroke="#ff4d52" stroke-miterlimit="10" stroke-width="1"/>
    <path id="Path_76" data-name="Path 76" d="M119.15,554.69S153.8,584.76,225,575.23" transform="translate(-87.95 -79.941)" fill="none" stroke="#ff4d52" stroke-miterlimit="10" stroke-width="1"/>
    <path id="Path_77" data-name="Path 77" d="M864.64,353.67S836.46,378,810.74,389C810.74,389,849.8,395.95,864.64,353.67Z" transform="translate(-98.511 -72.624)" opacity="0.05"/>
    <path id="Path_78" data-name="Path 78" d="M566.1,425.28s133.72,12.63,184.32.82c0,0,2.7,1.79-13.41-5.43Z" transform="translate(-96.013 -74.726)" opacity="0.1"/>
    <path id="Path_79" data-name="Path 79" d="M1073.82,413.37c-8.33-5.47-21.54-16.82-19.74-29.45.9-6.33-3.58-12.25-9.73-17.22,11.22,2.88,21.48,8.14,18.59,17.64-5.9,19.4,10.12,21.93,10.12,21.93S1073.39,408.87,1073.82,413.37Z" transform="translate(-102.238 -73.291)" opacity="0.05"/>
    <path id="Path_80" data-name="Path 80" d="M401.73,501.41a100.024,100.024,0,0,0-.25-10,17.06,17.06,0,0,0-.16-1.78,35.934,35.934,0,0,1,3,2.5l-1.65-86.84-9.1-45.49c0-32.26-17.37-41.35-17.37-41.35s-9.1-4.14-11.58-9.92-24.46-18-24.47-18a62.186,62.186,0,0,1-.2-6.33c0-.55,0-1.12.05-1.69a27.3,27.3,0,0,0,9.47-34.68c1.22,0,2.21-.51,2.67-2.32,1.46-5.73.05-14.36-3.27-18.94a18.59,18.59,0,0,0-2.39-2.65,41,41,0,0,0-3.25-2.93c-2.84-2.36-6-4.84-9.52-4.64a14.25,14.25,0,0,0-5.63,2q-13.19,6.94-26.31,14c-3.23,1.75-6.56,3.59-8.82,6.73s-3.17,7.16-3.8,11.11a27.24,27.24,0,0,0-.37,8.13,10.51,10.51,0,0,0,3.19,6.48,7.14,7.14,0,0,0,1.23,1.17c1.78,1.3,4.07,1.62,5.93,2.67A27.3,27.3,0,0,0,306,279.41c0,.51-.07,1-.11,1.56-.11,1.43-.28,3-.5,4.59h0s-6.11-.16-15.21,12.24-28.95,14.06-28.95,14.06-7.44-3.31-15.71,33.91-10.75,62-6.62,66.16a22.56,22.56,0,0,0,5.86,3.66,71.81,71.81,0,0,0,22.33,7,2,2,0,0,0,.49.79l.59,7.21h0c.5,15.22,1.08,45.75-2,52.52-4.14,9.1.83,14.89.83,14.89l1-.07a7.592,7.592,0,0,0,.62.9l4-.27c-.29,17-1.07,40.58-3.13,45.76-3.31,8.27,0,53.76,0,53.76l-5.79,81.88s-3.17,42.74-.2,47.69c-1.62,8.89-4.53,25.83-3.93,30.05.83,5.79,19.85,14.06,19.85,14.06s22.33,5,33.08,3.31c5.62-.87,7.85-4.67,7.87-8,7.29,1.17,16.78,2.29,22.73,1.37,10.75-1.65,9.1-14.06,3.31-13.23S334,744.4,329.08,738.61c-2.5-2.92-4.58-8.14-6-12.61a4.62,4.62,0,0,0,2.72-1.45c2.48-4.14,6.62-42.18,6.62-42.18l10.75-66.16s5.79-32.26,10.75-39.7c3.75-5.62,8.44-47.56,10.51-67.76h.24l.22-.71L368,498c1.66,2.93,5.84,4.38,10.71,5-.52,2.12-.95,3.85-1.2,4.84-1.24,5,16.84,13.23,21.2,9.1,1.83-1.73,2.78-8,3-14.86h.15ZM293.07,726.95c-.28,1.61-.56,3.29-.84,5-.63-2-1.13-3.8-1.47-5.13C291.58,726.85,292.35,726.89,293.07,726.95Z" transform="translate(-87.95 -90.009)" fill="url(#linear-gradient-3)"/>
    <path id="Path_81" data-name="Path 81" d="M320.8,709.71s3.19,14.34,8,19.91,11.15,16.72,16.72,15.93,7.17,11.15-3.19,12.74-31.86-3.19-31.86-3.19-18.32-8-19.11-13.54,4.78-34.25,4.78-34.25Z" transform="translate(-90.935 -90.009)" fill="#53526b"/>
    <path id="Path_82" data-name="Path 82" d="M320.8,709.71s3.19,14.34,8,19.91,11.15,16.72,16.72,15.93,7.17,11.15-3.19,12.74-31.86-3.19-31.86-3.19-18.32-8-19.11-13.54,4.78-34.25,4.78-34.25Z" transform="translate(-90.935 -90.009)" opacity="0.05"/>
    <path id="Path_83" data-name="Path 83" d="M291.33,716.08s3.19,14.34,8,19.91,11.15,16.72,16.72,15.93,7.17,11.15-3.19,12.74S281,761.48,281,761.48s-18.32-8-19.11-13.54,4.78-34.25,4.78-34.25Z" transform="translate(-90.503 -90.009)" fill="#53526b"/>
    <path id="Path_84" data-name="Path 84" d="M363.81,497.86s-6.37,68.49-11.15,75.66-10.35,38.23-10.35,38.23l-10.35,63.71s-4,36.64-6.37,40.62-31.93,2.27-31.93,2.27L312,507.42Z" transform="translate(-91.006 -83.554)" fill="#5f5d7e"/>
    <path id="Path_85" data-name="Path 85" d="M363.81,497.86s-6.37,68.49-11.15,75.66-10.35,38.23-10.35,38.23l-10.35,63.71s-4,36.64-6.37,40.62-31.93,2.27-31.93,2.27L312,507.42Z" transform="translate(-91.006 -83.554)" opacity="0.05"/>
    <path id="Path_86" data-name="Path 86" d="M376.55,465.21l-2.08,6.61-11.25,35.71-.22.68h-.06c-1.51.34-33.39,7.67-40.27,9.92a9.732,9.732,0,0,0-1.09.41c-3.19,1.59-7.17,58.93-7.17,58.93s-2.39,54.16-4,58.14-8,86-11.95,83.62-32.65,0-32.65,0c-3.19-3.19,0-46.19,0-46.19l5.57-78.85s-3.19-43.8,0-51.77,3.19-61.32,3.19-61.32L339.8,471l6.3-1Z" transform="translate(-90.691 -83.181)" fill="#5f5d7e"/>
    <path id="Path_87" data-name="Path 87" d="M374.47,471.82l-11.25,35.71-.27.7c-1.51.34-33.39,7.67-40.27,9.92h-.69L339.8,471l.51-1.36,5.79.37Z" transform="translate(-91.365 -77.304)" opacity="0.02"/>
    <path id="Path_88" data-name="Path 88" d="M300.09,305.93s29.47,31.86,47.79,5.57l17.52,11.95-3.19,18.32,10.35,138.58s-27.08-.8-46.19,5.57a29.64,29.64,0,0,1-31.06-7.17L298.5,356.9l-7.17-37.43Z" transform="translate(-91.007 -73.057)" opacity="0.1"/>
    <path id="Path_89" data-name="Path 89" d="M300.09,303.54s29.47,31.86,47.79,5.57l17.52,11.95-3.19,18.32L372.57,478s-27.08-.8-46.19,5.57a29.64,29.64,0,0,1-31.06-7.17l3.19-121.85-7.17-37.43Z" transform="translate(-91.007 -72.945)" fill="#53526b"/>
    <g id="TESLA" transform="translate(213.324 366.653)">
      <g id="g8" transform="translate(54.21 0.01)">
        <path id="polyline10" d="M270.96,383.91v5.01h1.61v-3.34h5.85v3.34h1.61v-5l-9.07-.01" transform="translate(-270.73 -380.63)" fill="#e82127"/>
        <path id="path12" d="M360.35,443.8h6.18a2.28,2.28,0,0,0,1.68-1.66h-9.53a2.29,2.29,0,0,0,1.68,1.66" transform="translate(-358.68 -442.14)" fill="#e82127"/>
      </g>
      <g id="g14" transform="translate(42.16 0.01)">
        <path id="path16" d="M354.05,450.43a2.3,2.3,0,0,0,1.41-1.63h-7.21v-6.66h-1.62v8.29h7.41" transform="translate(-346.63 -442.14)" fill="#e82127"/>
      </g>
      <g id="g18" transform="translate(28.06 0.01)">
        <path id="path20" d="M334.63,443.77h5.71a2.5,2.5,0,0,0,1.76-1.63H333V447h7.42v1.72H334.6a3.25,3.25,0,0,0-2.07,1.68H342v-5h-7.41v-1.64" transform="translate(-332.53 -442.14)" fill="#e82127"/>
      </g>
      <g id="g22" transform="translate(14.4)">
        <path id="path24" d="M320.54,443.79h6.18a2.28,2.28,0,0,0,1.68-1.66h-9.53a2.29,2.29,0,0,0,1.68,1.66" transform="translate(-318.87 -442.13)" fill="#e82127"/>
        <path id="path26" d="M320.54,447.06h6.18a2.27,2.27,0,0,0,1.68-1.66h-9.53a2.29,2.29,0,0,0,1.68,1.66" transform="translate(-318.87 -442.13)" fill="#e82127"/>
        <path id="path28" d="M320.54,450.43h6.18a2.28,2.28,0,0,0,1.68-1.66h-9.53a2.29,2.29,0,0,0,1.68,1.66" transform="translate(-318.87 -442.13)" fill="#e82127"/>
      </g>
      <g id="g30" transform="translate(0 0.02)">
        <path id="path32" d="M304.47,442.15a2.31,2.31,0,0,0,1.67,1.65h2.6l.13.05v6.56h1.62v-6.56l.15-.05h2.6a2.34,2.34,0,0,0,1.67-1.65H304.47" transform="translate(-304.47 -442.15)" fill="#e82127"/>
      </g>
    </g>
    <g id="T" transform="translate(216.171 294.468)">
      <path id="path35" d="M336.34,425.75l8.11-45.63c7.73,0,10.17.85,10.53,4.31,0,0,5.19-1.93,7.8-5.86a57.341,57.341,0,0,0-20.47-4.95l-6,7.29h0l-6-7.29a57.331,57.331,0,0,0-20.47,4.95c2.61,3.93,7.8,5.86,7.8,5.86.35-3.46,2.79-4.31,10.47-4.32l8.18,45.64" transform="translate(-307.34 -367.989)" fill="#e82127"/>
      <path id="path37" d="M336.34,371.51A66.851,66.851,0,0,1,363.71,377a22.228,22.228,0,0,0,1.63-3.36,77.24,77.24,0,0,0-58,0A28.062,28.062,0,0,0,309,377a66.85,66.85,0,0,1,27.37-5.49h0" transform="translate(-307.34 -367.989)" fill="#e82127"/>
    </g>
    <path id="Path_90" data-name="Path 90" d="M361.42,468.39s0,20.71,4.78,29.47,32.65,4,32.65,4l-5.57-29.47Z" transform="translate(-91.88 -76.967)" fill="#d39999"/>
    <path id="Path_91" data-name="Path 91" d="M395.82,516.18c-4.2,4-21.61-4-20.41-8.76.84-3.37,3.78-15.43,5.45-22.27l1.16-4.81s10.2-3.19,13.8,0c1.31,1.16,2.23,5.73,2.66,11.25C399.22,501.18,398.49,513.65,395.82,516.18Z" transform="translate(-92.022 -77.443)" fill="#fdc2cc"/>
    <path id="Path_92" data-name="Path 92" d="M357.43,317.87l-27.87,21.5s-41.41-2.39-31.06-22.3a74.239,74.239,0,0,0,8-28.14,58.84,58.84,0,0,0,0-10.89s38.23-35,33.45,4.78a90.248,90.248,0,0,0-.66,9.2C338.76,321.88,357.43,317.87,357.43,317.87Z" transform="translate(-91.023 -69.637)" fill="#fdc2cc"/>
    <path id="Path_93" data-name="Path 93" d="M339.91,282.83a90.249,90.249,0,0,0-.66,9.2,26.1,26.1,0,0,1-14.47,4.34c-7.13,0-12.38-6.94-17.12-11.55.53-6.61-1.19-6.77-1.19-6.77S344.69,243,339.91,282.83Z" transform="translate(-91.079 -69.173)" opacity="0.1"/>
    <circle id="Ellipse_27" data-name="Ellipse 27" cx="26.28" cy="26.28" r="26.28" transform="translate(207.478 173.668)" fill="#fdc2cc"/>
    <path id="Path_94" data-name="Path 94" d="M306.07,293.58s-4.38.4-13.14,12.34S265,319.46,265,319.46s-7.17-3.19-15.13,32.65-10.35,59.73-6.37,63.71,19.91,9.56,27.87,9.56c0,0,2.39,50.17-1.59,58.93s.8,14.34.8,14.34l35-2.39s11.95-15.13,14.34-41.41,10.35-101.15,6.37-109.91-21.5-31.06-20.71-33.45S306.07,293.58,306.07,293.58Z" transform="translate(-87.95 -72.915)" opacity="0.1"/>
    <path id="Path_95" data-name="Path 95" d="M306,293.34s-5.89-.16-14.65,11.79-27.87,13.54-27.87,13.54-7.17-3.19-15.13,32.65S238,411.05,242,415s19.91,9.56,27.87,9.56c0,0,2.39,50.17-1.59,58.93s.8,14.34.8,14.34l35-2.39s11.95-15.13,14.34-41.41,10.35-101.15,6.37-109.91-21.5-31.06-20.71-33.45S306,293.34,306,293.34Z" transform="translate(-87.95 -72.892)" fill="#d39999"/>
    <path id="Path_96" data-name="Path 96" d="M285,395.92s39.85-45.7,34.25-14.34c-4,22.3-19.11,34.25-26.28,36.64S285,395.92,285,395.92Z" transform="translate(-90.774 -73.459)" fill="#fdc2cc"/>
    <path id="Path_97" data-name="Path 97" d="M398.48,491.59c-3.81-2.91-11-7.44-17.62-6.44l1.16-4.81s10.2-3.19,13.8,0C397.14,481.5,398.05,486.07,398.48,491.59Z" transform="translate(-92.077 -76.913)" opacity="0.1"/>
    <path id="Path_98" data-name="Path 98" d="M339.51,298.36s20.31,13.14,22.7,18.72,11.15,9.56,11.15,9.56,16.72,8.76,16.72,39.82l8.76,43.8L359,466s-4.78-55.75-7.17-69.29-5.57-39-5.57-39-11.95-15.13-10.35-19.11S339.51,298.36,339.51,298.36Z" transform="translate(-91.605 -72.445)" opacity="0.1"/>
    <path id="Path_99" data-name="Path 99" d="M339.44,298.12s21.18,11.79,23.56,17.36S374.16,325,374.16,325s16.72,8.76,16.72,39.82l8.76,43.8,1.59,83.62s-14.34-13.54-24.69-7.17-16.72-20.71-16.72-20.71-4.78-55.75-7.17-69.29-5.57-39-5.57-39S335.13,341,336.73,337,339.44,298.12,339.44,298.12Z" transform="translate(-91.623 -72.923)" fill="#d39999"/>
    <path id="Path_100" data-name="Path 100" d="M347.85,236.53a26,26,0,0,0-4.64-4.58c-2.74-2.28-5.77-4.66-9.17-4.46a13.719,13.719,0,0,0-5.42,1.94q-12.7,6.69-25.33,13.52c-3.11,1.68-6.32,3.46-8.49,6.48s-3.05,6.9-3.66,10.7a26.229,26.229,0,0,0-.36,7.82,9.81,9.81,0,0,0,3.46,6.57c2.27,1.65,5.38,1.66,7.28,3.82,1.1,1.25,1.58,3,2.36,4.52s2.13,3,3.67,2.73,2.47-1.9,2.69-3.55a21.55,21.55,0,0,0-.29-5c-.3-3,.08-6.18,1.82-8.41,1.2-1.52,2.92-2.44,4.08-4,2.78-3.76,1.51-10,4.56-13.53a7.23,7.23,0,0,1,7-2c2.47.52,4.73,1.86,7,3a52,52,0,0,0,9.59,3.7c2.78.76,6,2.58,6.95-1.12C352.4,249.25,351,240.94,347.85,236.53Z" transform="translate(-90.933 -68.018)" opacity="0.1"/>
    <path id="Path_101" data-name="Path 101" d="M347.05,235.73a26,26,0,0,0-4.64-4.58c-2.74-2.28-5.77-4.66-9.17-4.46a13.719,13.719,0,0,0-5.42,1.94c-8.46,4.46-15.49.24-25.33,13.52-2.1,2.84-6.32,3.46-8.49,6.48s-3.05,6.9-3.66,10.7a26.229,26.229,0,0,0-.36,7.82,9.81,9.81,0,0,0,3.46,6.57c2.27,1.65,5.38,1.66,7.28,3.82,1.1,1.25,1.58,3,2.36,4.52s2.13,3,3.67,2.73,2.47-1.9,2.69-3.55a21.55,21.55,0,0,0-.29-5c-.3-3,.08-6.18,1.82-8.41,1.2-1.52,2.92-2.44,4.08-4,2.78-3.76,1.51-10,4.56-13.53a7.23,7.23,0,0,1,7-2c2.47.52,4.73,1.86,7,3a52,52,0,0,0,9.59,3.7c2.78.76,6,2.58,6.95-1.12C351.61,248.45,350.25,240.14,347.05,235.73Z" transform="translate(-90.921 -67.987)" fill="#865a61"/>
    <path id="Path_102" data-name="Path 102" d="M275.4,353.71s-.8,29.47-4.78,33.45,2.39,8.76,2.39,8.76l15.93-4s-4,26.28,12.74,23.1c0,0-11.15,10.35-22.3,11.95S269,424.59,269,424.59l-16.72-19.91Z" transform="translate(-90.34 -73.217)" fill="#d39999"/>
    <path id="Path_103" data-name="Path 103" d="M275.27,357.29s-10.62,27.08-2.65,38.23l17.52-4s-15.93,4.78-13.54-4.78S275.27,357.29,275.27,357.29Z" transform="translate(-87.95 -72.799)" opacity="0.1"/>
    <path id="Path_104" data-name="Path 104" d="M269.43,424.19s23.1,1.59,29.47-3.19a61,61,0,0,1-28.75,12Z" transform="translate(-90.537 -74.764)" opacity="0.1"/>
    <path id="Path_105" data-name="Path 105" d="M369,373.22s11.95,36.64,11.15,42.21-2.39,66.9-2.39,66.9l-2.39-.8.8-66.9Z" transform="translate(-91.885 -74.654)" opacity="0.1"/>
    <path id="Path_106" data-name="Path 106" d="M872.12,476.83s17.5,34.35,3.24,53.14,1.3,70,1.3,70" transform="translate(-98.894 -79.394)" fill="none" stroke="#6c63ff" stroke-miterlimit="10" stroke-width="1"/>
    <path id="Path_107" data-name="Path 107" d="M877.3,466.14c0,6.62-4.86,12-4.86,12s-4.86-5.37-4.86-12,4.86-12,4.86-12S877.3,459.52,877.3,466.14Z" transform="translate(-98.849 -76.214)" fill="#6d8aff"/>
    <path id="Path_108" data-name="Path 108" d="M881.19,476.83s-17.5,34.35-3.24,53.14-1.3,70-1.3,70" transform="translate(-98.936 -79.394)" fill="none" stroke="#6c63ff" stroke-miterlimit="10" stroke-width="1"/>
    <path id="Path_109" data-name="Path 109" d="M876,466.14c0,6.62,4.86,12,4.86,12s4.86-5.37,4.86-12-4.86-12-4.86-12S876,459.52,876,466.14Z" transform="translate(-98.967 -76.214)" fill="#6d8aff"/>
    <path id="Path_110" data-name="Path 110" d="M876,466.14c0,6.62,4.86,12,4.86,12s4.86-5.37,4.86-12-4.86-12-4.86-12S876,459.52,876,466.14Z" transform="translate(-98.967 -76.214)" opacity="0.1"/>
    <path id="Path_111" data-name="Path 111" d="M888.32,476.83s17.5,34.35,3.24,53.14,1.3,70,1.3,70" transform="translate(-99.121 -79.394)" fill="none" stroke="#6c63ff" stroke-miterlimit="10" stroke-width="1"/>
    <path id="Path_112" data-name="Path 112" d="M893.5,466.14c0,6.62-4.86,12-4.86,12s-4.86-5.37-4.86-12,4.86-12,4.86-12S893.5,459.52,893.5,466.14Z" transform="translate(-99.075 -76.214)" fill="#6d8aff"/>
    <path id="Path_113" data-name="Path 113" d="M890.78,493.66c-4.59,4.77-11.82,5.27-11.82,5.27s.22-7.24,4.81-12,11.82-5.27,11.82-5.27S895.37,488.89,890.78,493.66Z" transform="translate(-99.083 -77.107)" fill="#6d8aff"/>
    <path id="Path_114" data-name="Path 114" d="M891.23,517.36c-4.59,4.77-11.82,5.27-11.82,5.27s.22-7.24,4.81-12S896,505.35,896,505.35,895.82,512.58,891.23,517.36Z" transform="translate(-99.089 -77.987)" fill="#6d8aff"/>
    <path id="Path_115" data-name="Path 115" d="M866.34,530.39c4.34,5,4.19,12.24,4.19,12.24s-7.19-.87-11.53-5.87-4.19-12.24-4.19-12.24S862,525.39,866.34,530.39Z" transform="translate(-98.734 -78.717)" fill="#6d8aff"/>
    <path id="Path_116" data-name="Path 116" d="M870.37,479.86c5.52,3.66,7.31,10.68,7.31,10.68S870.51,491.62,865,488s-7.31-10.68-7.31-10.68S864.85,476.2,870.37,479.86Z" transform="translate(-98.82 -76.865)" fill="#6d8aff"/>
    <path id="Path_117" data-name="Path 117" d="M870.37,479.86c5.52,3.66,7.31,10.68,7.31,10.68S870.51,491.62,865,488s-7.31-10.68-7.31-10.68S864.85,476.2,870.37,479.86Z" transform="translate(-98.82 -76.865)" opacity="0.1"/>
    <path id="Path_118" data-name="Path 118" d="M897.39,476.83s-17.5,34.35-3.24,53.14-1.3,70-1.3,70" transform="translate(-99.163 -79.394)" fill="none" stroke="#6c63ff" stroke-miterlimit="10" stroke-width="1"/>
    <path id="Path_119" data-name="Path 119" d="M892.21,466.14c0,6.62,4.86,12,4.86,12s4.86-5.37,4.86-12-4.86-12-4.86-12S892.21,459.52,892.21,466.14Z" transform="translate(-99.193 -76.214)" fill="#6d8aff"/>
    <path id="Path_120" data-name="Path 120" d="M892.21,466.14c0,6.62,4.86,12,4.86,12s4.86-5.37,4.86-12-4.86-12-4.86-12S892.21,459.52,892.21,466.14Z" transform="translate(-99.193 -76.214)" opacity="0.1"/>
    <path id="Path_121" data-name="Path 121" d="M893.61,494.17c-4.65,4.72-5,12-5,12s7.23-.41,11.88-5.13,5-12,5-12S898.25,489.45,893.61,494.17Z" transform="translate(-99.222 -77.378)" fill="#6d8aff"/>
    <path id="Path_122" data-name="Path 122" d="M893.61,494.17c-4.65,4.72-5,12-5,12s7.23-.41,11.88-5.13,5-12,5-12S898.25,489.45,893.61,494.17Z" transform="translate(-99.222 -77.378)" opacity="0.1"/>
    <path id="Path_123" data-name="Path 123" d="M902.72,527c-4.65,4.72-5,12-5,12s7.23-.41,11.88-5.13,5-12,5-12S907.37,522.26,902.72,527Z" transform="translate(-99.35 -78.597)" fill="#6d8aff"/>
    <path id="Path_124" data-name="Path 124" d="M889.31,519.77s10.53-16.6,25.32-17" transform="translate(-99.326 -77.885)" fill="none" stroke="#6c63ff" stroke-miterlimit="10" stroke-width="1"/>
    <path id="Path_125" data-name="Path 125" d="M881.11,509.74s-10.53-16.6-25.32-17" transform="translate(-98.85 -77.513)" fill="none" stroke="#6c63ff" stroke-miterlimit="10" stroke-width="1"/>
    <path id="Path_126" data-name="Path 126" d="M879.74,533.44s10.53-16.6,25.32-17" transform="translate(-99.19 -78.392)" fill="none" stroke="#6c63ff" stroke-miterlimit="10" stroke-width="1"/>
    <circle id="Ellipse_28" data-name="Ellipse 28" cx="2.73" cy="2.73" r="2.73" transform="translate(811.996 422.411)" fill="#6d8aff"/>
    <circle id="Ellipse_29" data-name="Ellipse 29" cx="2.73" cy="2.73" r="2.73" transform="translate(754.705 412.969)" fill="#6d8aff"/>
    <path id="Path_127" data-name="Path 127" d="M887.49,538.91s-10.53-16.6-25.32-17" transform="translate(-98.941 -78.595)" fill="none" stroke="#6c63ff" stroke-miterlimit="10" stroke-width="1"/>
    <circle id="Ellipse_30" data-name="Ellipse 30" cx="2.73" cy="2.73" r="2.73" transform="translate(760.996 441.072)" fill="#6d8aff"/>
    <circle id="Ellipse_31" data-name="Ellipse 31" cx="2.73" cy="2.73" r="2.73" transform="translate(803.24 435.802)" fill="#6d8aff"/>
    <path id="Path_128" data-name="Path 128" d="M945.71,580s-25.38-5.08-32.15-11.85S876.33,549.57,872.95,558,827.26,595.26,856,600.33s67.69,6.77,76.15,3.38S945.71,580,945.71,580Z" transform="translate(-99.571 -80.659)" fill="#a8a8a8"/>
    <path id="Path_129" data-name="Path 129" d="M856,597.19c28.77,5.08,67.69,6.77,76.15,3.38,6.44-2.58,10.92-15,12.69-20.72l.85.18s-5.08,20.31-13.54,23.69-47.38,1.69-76.15-3.38c-8.3-1.47-10.68-4.91-9.78-9.26C846.95,593.91,849.84,596.1,856,597.19Z" transform="translate(-99.57 -80.964)" opacity="0.2"/>
    <path id="Path_130" data-name="Path 130" d="M201.27,664.66s8.38,11-3.87,27.5S175.05,722.67,179.14,733c0,0,18.48-30.73,33.52-31.16S217.81,683.14,201.27,664.66Z" transform="translate(-87.95 -90.009)" fill="#6d8aff"/>
    <path id="Path_131" data-name="Path 131" d="M201.27,664.66a13.57,13.57,0,0,1,1.71,3.44c14.68,17.24,22.49,33.33,8.39,33.74-13.14.38-28.9,23.87-32.68,29.81a12.732,12.732,0,0,0,.45,1.35s18.48-30.73,33.52-31.16S217.81,683.14,201.27,664.66Z" transform="translate(-87.95 -90.009)" opacity="0.1"/>
    <path id="Path_132" data-name="Path 132" d="M216.85,678.62c0,3.86-.43,7-1,7s-1-3.13-1-7,.54-2,1.07-2S216.85,674.77,216.85,678.62Z" transform="translate(-87.95 -84.097)" fill="#ffd037"/>
    <path id="Path_133" data-name="Path 133" d="M222.19,683.23c-3.39,1.85-6.34,3-6.59,2.49s2.28-2.35,5.67-4.19,2.05-.5,2.31,0S225.58,681.38,222.19,683.23Z" transform="translate(-87.95 -84.137)" fill="#ffd037"/>
    <path id="Path_134" data-name="Path 134" d="M157,664.66s-8.38,11,3.87,27.5,22.35,30.51,18.26,40.83c0,0-18.48-30.73-33.52-31.16S140.46,683.14,157,664.66Z" transform="translate(-87.95 -90.009)" fill="#6d8aff"/>
    <path id="Path_135" data-name="Path 135" d="M157,664.66a13.569,13.569,0,0,0-1.71,3.44c-14.68,17.24-22.49,33.33-8.39,33.74,13.14.38,28.9,23.87,32.68,29.81a12.735,12.735,0,0,1-.45,1.35s-18.48-30.73-33.52-31.16S140.46,683.14,157,664.66Z" transform="translate(-87.95 -90.009)" opacity="0.1"/>
    <path id="Path_136" data-name="Path 136" d="M141.42,678.62c0,3.86.43,7,1,7s1-3.13,1-7-.54-2-1.07-2S141.42,674.77,141.42,678.62Z" transform="translate(-87.95 -84.097)" fill="#ffd037"/>
    <path id="Path_137" data-name="Path 137" d="M136.08,683.23c3.39,1.85,6.34,3,6.59,2.49s-2.28-2.35-5.67-4.19-2.05-.5-2.31,0S132.69,681.38,136.08,683.23Z" transform="translate(-87.95 -84.137)" fill="#ffd037"/>
    <path id="Path_138" data-name="Path 138" d="M144.09,731.55s23.43-.72,30.49-5.75,36-11,37.79-3,35.21,40.11,8.76,40.32-61.46-4.12-68.51-8.41S144.09,731.55,144.09,731.55Z" transform="translate(-87.95 -90.009)" fill="#a8a8a8"/>
    <path id="Path_139" data-name="Path 139" d="M221.61,760.35c-26.45.21-61.46-4.12-68.51-8.41-5.37-3.27-7.51-15-8.22-20.41h-.78s1.48,18.9,8.53,23.19,42.06,8.63,68.51,8.41c7.64-.06,10.27-2.78,10.13-6.8C230.2,758.79,227.29,760.3,221.61,760.35Z" transform="translate(-87.95 -90.009)" opacity="0.2"/>
  </g>
</svg>
