<svg xmlns="http://www.w3.org/2000/svg" width="2241.525" height="3859.869" viewBox="0 0 2241.525 3859.869">
  <path id="wave" d="M1174.717,1551.292l-7.568,34.884c3.692-1.448,6.955,1.495,0,0-6.688-2.726-6.6,3.445,0,0,3.6.183-23.055,39.167-9.412,43.389-15.156,2.755,587.6-35.1,1008.184-240.124,420.585-208.9,841.17-687.506,1261.755-965.613s851.211-338.815,1061.5-375.68l-15.9,151.322L4324.361,1616.3,4293,1914.716c-103.464,0-66.82-11.71-252.927-15.765-191.043-4.162-423.723-24.815-646-38.78-422.678-21.459-860.768-53.155-1260.194-75.651S798.73,1707.39,807.519,1717.207s-10.73-.869.069-.319-4.7,1.949-.069.319l2.251-12.176Z" transform="matrix(0.105, 0.995, -0.995, 0.105, 1820.162, -804.862)" fill="#6d8aff"/>
</svg>
